<svg xmlns="http://www.w3.org/2000/svg" fill="none" viewBox="0 0 348 348"><path stroke="#000" stroke-width="2" d="M5.08 5.78h336.91v337.67H5.08z"/><path stroke="#000" stroke-width="2" d="M282.73 40.55c0-8.37 6.97-15.16 15.56-15.16 4.13 0 8.09 1.6 11 4.44a14.97 14.97 0 0 1 4.56 10.72c0 8.38-6.96 15.17-15.56 15.17-8.59 0-15.56-6.8-15.56-15.17z"/><path stroke="#000" d="M34.86 27.05H249v26.84H34.86zm61.87 49.69h156.88v26.91H96.73z"/><path stroke="#000" stroke-width="1.23" d="M273.92 89.28c0-4.91 4.45-8.9 9.95-8.9 2.64 0 5.17.94 7.04 2.6a8.46 8.46 0 0 1 2.91 6.3c0 4.92-4.45 8.9-9.95 8.9-5.5 0-9.95-3.98-9.95-8.9zm-218.18.14c0-4.92 4.45-8.91 9.95-8.91 2.64 0 5.17.94 7.03 2.6a8.46 8.46 0 0 1 2.92 6.3c0 4.92-4.46 8.91-9.95 8.91s-9.95-3.99-9.95-8.9zm-30.5-.27c0-4.92 4.45-8.9 9.95-8.9 2.64 0 5.17.94 7.04 2.6a8.46 8.46 0 0 1 2.91 6.3c0 4.92-4.45 8.9-9.95 8.9-5.5 0-9.95-3.98-9.95-8.9zm278.13.52c0-4.91 4.46-8.9 9.96-8.9 2.64 0 5.17.94 7.03 2.6a8.46 8.46 0 0 1 2.92 6.3c0 4.92-4.46 8.91-9.95 8.91s-9.95-3.99-9.95-8.9z"/><path stroke="#000" stroke-width="5.86" d="M47.63 212.45c0-24.44 20.51-44.25 45.82-44.25 12.15 0 23.8 4.66 32.4 12.96a43.5 43.5 0 0 1 13.42 31.3c0 24.43-20.51 44.24-45.82 44.24-25.3 0-45.82-19.8-45.82-44.25z"/><path stroke="#000" stroke-width="1.5" d="M201.17 165.28h35.32v33.09h-35.32zm35.32 0h35.32v33.09H236.5zm35.32 0h35.33v33.09h-35.32zm-70.64 33.09h35.32v33.08h-35.32zm35.32 0h35.32v33.08H236.5zm0 66.17h35.32v33.09H236.5z"/><path stroke="#000" stroke-width="1.5" d="M201.17 231.45h35.32v33.1h-35.32zm35.32 0h35.32v33.1H236.5zm35.32 0h35.33v33.1h-35.32zm0-33.08h35.33v33.08h-35.32z"/></svg>