<svg xmlns="http://www.w3.org/2000/svg" fill="none" viewBox="0 0 348 348"><g stroke="#000" stroke-linecap="round" stroke-linejoin="round"><path stroke-width="2" d="m130.04 184.98-4.48-7.01c17.46-26.43-1.66-64.78-12.05-78.76-10.4-13.97-21.35-46.05 1.4-66.98 33.87-31.16 81.12 13.7 75.95 50.73l4.77 3.92c31.06 2.68 36.12 22.07 40.91 34.76l4.2 3.08c38.67-8.28 75.48 15.87 63.9 63.34-6.2 25.43-39.46 36.5-56.32 25.22-25.56-17.08-58.83-11.68-63.9-8.13l-14.02 9.81-5.6-.56-10.1 14.02-3.92 1.4.28 5.04-68.66 88.85c-22.29.11-28.68-11.22-32.51-24.39l63.34-92.76 3.92-.56-.28-4.2z" style="font-variation-settings:normal" transform="translate(-4.34 1.26)"/><path stroke-width="2" d="M141.1 46.97c-11.14.54-19.52 13.57-14.27 26.95 3.17 8.06 11.2 15.04 19.62 17.04 12.66 3.02 19.8-11.03 18.43-22-1.32-10.6-12.08-22.57-23.78-22zm116.93 100.67c-10.43 1.46-18 12.82-14.87 26.36 1.52 6.55 11.33 16.01 20.22 17.04 16.18 1.88 19.61-10.18 18.43-21.4-1.06-10.01-11.57-23.7-23.78-22zm-60.45-39.44-4.16 7.93 4.76 10.1 11.3 4.77 4.55-6.54-6.34-11.9z" style="font-variation-settings:normal" transform="translate(-4.34 1.26)"/><path d="M117.15 206c5.9 14.67 16.53 23.34 33.63 23.82m-20.74-44.84c11.27-10.52 24.55-45.53 47.13-32.19 22.58 13.35-3.46 39.64-12.37 61.61" style="font-variation-settings:normal" transform="translate(-4.34 1.26)"/></g></svg>