<svg xmlns="http://www.w3.org/2000/svg" fill="none" stroke="#000" stroke-width="2" viewBox="0 0 347 347"><path d="M5 5h337v337H5z"/><circle cx="298" cy="40" r="16"/><path fill="#000" stroke="none" stroke-width="1.2" d="m87.8 182.5 4.2-21.2h4.3L92 182.5zm0 0 3-3.8H103v3.8zm18.6 0v-3.8h3.2v3.8zm-3.8 6.7v-29.6h4.2v29.6zm35.7-12.9v-3.8h20.9v3.8zm59 12.9v-29.6h4.2v29.6zm-7.5 0v-4h8v4zm11.2 0v-4h7.2v4zm-10.8-23v-4.1l7-2.5v4.3zm31.6 12.4q-4 0-6-2.4-2.1-2.4-2.1-6.7 0-4.8 2.6-7.4 2.7-2.6 7.5-2.6 5.1 0 7.6 2.5 2.4 2.6 2.4 8l-3.5 3.8h-1.5q-.6 2.3-2.5 3.6-1.9 1.2-4.5 1.2zm-5.4 11-.4-4q13.2-.5 13.2-11.8v-2.4l4.6-1.4v1.8q0 8.5-4.3 13-4.3 4.3-13.1 4.8zm7-14.8q2.8 0 4.4-1.5 1.5-1.5 1.5-4.3 0-2.7-1.5-4.2t-4.2-1.5q-2.6 0-4 1.6-1.6 1.6-1.6 4.6 0 2.5 1.4 4 1.4 1.3 4 1.3zm24.6 14.4v-20.9h4.4v20.9zm-8.4 0v-3.7h8.8v3.7zm12.4 0v-3.7h7.2v3.7zm-11.2-18.5v-3.6h11.6v3.6zm9.3-7.1q-1.3 0-2.2-1-1-.8-1-2.1t1-2.2q.9-.9 2.2-.9 1.3 0 2.2 1 .8.8.8 2.1t-.8 2.2q-1 .9-2.2.9z" aria-label="4 - 19i"/></svg>