<svg xmlns="http://www.w3.org/2000/svg" fill="none" stroke="#000" stroke-width="2" viewBox="0 0 347 347"><path fill="#000" stroke="none" d="M62 99h173v165H62z"/><path fill="#fff" stroke-linecap="round" stroke-miterlimit="5" d="M122 275h102v31H122z"/><path d="M5 5h337v337H5z"/><circle cx="298" cy="40" r="16"/><path fill="#000" stroke-linecap="round" stroke-miterlimit="5" d="M62 41h123v31H62zm47 39h80v12h-80z"/><path fill="#000" stroke-linecap="round" stroke-linejoin="round" stroke-miterlimit="5" d="M271 109h4v146h-4z"/><path fill="#000" stroke-linecap="round" stroke-miterlimit="5" d="M132 282h83v18h-83z"/><path fill="#fff" stroke-linecap="round" stroke-miterlimit="5" d="M199 40h34v34h-34zm54 68h41v17h-41z"/><path fill="#4d4d4d" stroke="none" d="M64 102h168v37H64zm0 40h168v38H64zm0 41h168v37H64zm0 40h168v38H64z"/><path stroke-linecap="round" stroke-linejoin="round" stroke-miterlimit="5" stroke-width="3.8" d="m225 65-5-5"/><circle cx="214.6" cy="53.8" r="7.3" stroke-linecap="round" stroke-linejoin="round" stroke-miterlimit="5" stroke-width="3.8"/></svg>