<svg xmlns="http://www.w3.org/2000/svg" fill="none" viewBox="0 0 348 348"><path stroke="#000" stroke-width="2" d="M342.37 6.15v336.92H4.7V6.16Z"/><path stroke="#000" stroke-width="2" d="M307.6 283.81c8.37 0 15.16 6.97 15.16 15.56 0 4.13-1.6 8.08-4.44 11a14.97 14.97 0 0 1-10.73 4.56c-8.37 0-15.16-6.97-15.16-15.56 0-8.6 6.79-15.56 15.16-15.56z"/><path fill="#fff" stroke="#000" stroke-width=".84" d="M91.78 22.15h41.81v41.81H91.78zM141.78 22.15h41.81v41.81h-41.81zM191.78 22.15h41.81v41.81h-41.81zM241.78 22.15h41.81v41.81h-41.81zM91.78 72.15h41.81v41.81H91.78zM141.78 72.15h41.81v41.81h-41.81zM191.78 72.15h41.81v41.81h-41.81zM241.78 72.15h41.81v41.81h-41.81zM41.78 72.15h41.81v41.81H41.78zM91.78 122.15h41.81v41.81H91.78zM141.78 122.15h41.81v41.81h-41.81zM191.78 122.15h41.81v41.81h-41.81zM241.78 122.15h41.81v41.81h-41.81zM41.78 122.15h41.81v41.81H41.78zM91.78 172.15h41.81v41.81H91.78zM141.78 172.15h41.81v41.81h-41.81zM191.78 172.15h41.81v41.81h-41.81zM241.78 172.15h41.81v41.81h-41.81zM41.78 172.15h41.81v41.81H41.78zM91.78 222.15h41.81v41.81H91.78zM141.78 222.15h41.81v41.81h-41.81zM191.78 222.15h41.81v41.81h-41.81zM241.78 222.15h41.81v41.81h-41.81zM141.78 277.15h41.81v41.81h-41.81zM41.78 222.15h41.81v41.81H41.78z"/><path fill="#fff" stroke="#000" d="m110.06 311.28-54.17-30.64-.01-.64 53.63-31.6.55.32.55 62.24z" transform="matrix(.72 0 0 .62 51.64 124.54)"/><path fill="#fff" stroke="#000" d="m110.06 311.28-54.17-30.64-.01-.64 53.63-31.6.55.32.55 62.24z" transform="matrix(-.72 0 0 -.62 272.69 470)"/></svg>