<svg xmlns="http://www.w3.org/2000/svg" fill="none" viewBox="0 0 348 348"><path stroke="#000" stroke-width="2" d="M5.08 5.78h336.91v337.67H5.08z"/><path stroke="#000" stroke-width="2" d="M282.73 40.55c0-8.37 6.97-15.16 15.56-15.16 4.13 0 8.09 1.6 11 4.44a14.97 14.97 0 0 1 4.56 10.72c0 8.38-6.96 15.17-15.56 15.17-8.59 0-15.56-6.8-15.56-15.17z"/><rect width="257.25" height="48.97" x="16.18" y="16.45" fill="#fff" stroke="#000" stroke-width="1.04" ry="3.36"/><path stroke="#000" d="M86.62 115.7h30.87v35.01H86.62zm30.87 0h30.86v35.01H117.5zm30.86 0h30.87v35.01h-30.87zm30.87 0h30.86v35.01h-30.86z"/><path stroke="#000" d="M210.08 115.7h30.87v35.01h-30.87zM86.62 150.71h30.87v35.01H86.62zm30.87 0h30.86v35.01H117.5zm30.86 0h30.87v35.01h-30.87zm30.87 0h30.86v35.01h-30.86z"/><path stroke="#000" d="M210.08 150.71h30.87v35.01h-30.87zM86.62 185.72h30.87v35.02H86.62zm30.87 0h30.86v35.02H117.5zm30.86 0h30.87v35.02h-30.87zm30.87 0h30.86v35.02h-30.86z"/><path stroke="#000" d="M210.08 185.72h30.87v35.02h-30.87zM86.62 220.75h30.87v35H86.62zm30.87 0h30.86v35H117.5zm30.86 0h30.87v35h-30.87z"/><path stroke="#000" d="M179.22 220.74h30.86v35h-30.86zm30.86 0h30.87v35h-30.87zm-123.46 35h30.87v35.02H86.62zm30.87 0h30.86v35.02H117.5zm30.86 0h30.87v35.02h-30.87z"/><path stroke="#000" d="M179.22 255.75h30.86v35.01h-30.86zm30.86 0h30.87v35.01h-30.87zM86.62 115.7h30.87v35.01H86.62zm30.87 0h30.86v35.01H117.5zm30.86 0h30.87v35.01h-30.87zm30.87 0h30.86v35.01h-30.86z"/><path stroke="#000" d="M210.08 115.7h30.87v35.01h-30.87zM86.62 150.71h30.87v35.01H86.62zm30.87 0h30.86v35.01H117.5zm30.86 0h30.87v35.01h-30.87zm30.87 0h30.86v35.01h-30.86z"/><path stroke="#000" d="M210.08 150.71h30.87v35.01h-30.87zM86.62 185.72h30.87v35.02H86.62zm30.87 0h30.86v35.02H117.5zm30.86 0h30.87v35.02h-30.87zm30.87 0h30.86v35.02h-30.86z"/><path stroke="#000" d="M210.08 185.72h30.87v35.02h-30.87zM86.62 220.75h30.87v35H86.62zm30.87 0h30.86v35H117.5zm30.86 0h30.87v35h-30.87z"/><path stroke="#000" d="M179.22 220.74h30.86v35h-30.86zm30.86 0h30.87v35h-30.87zm-123.46 35h30.87v35.02H86.62zm30.87 0h30.86v35.02H117.5zm30.86 0h30.87v35.02h-30.87z"/><path stroke="#000" d="M179.22 255.75h30.86v35.01h-30.86zm30.86 0h30.87v35.01h-30.87zM86.62 115.7h30.87v35.01H86.62zm30.87 0h30.86v35.01H117.5zm30.86 0h30.87v35.01h-30.87z"/><path stroke="#000" d="M179.22 115.7h30.86v35.01h-30.86zm30.86 0h30.87v35.01h-30.87zM86.62 150.71h30.87v35.01H86.62zm30.87 0h30.86v35.01H117.5zm30.86 0h30.87v35.01h-30.87z"/><path stroke="#000" d="M179.22 150.71h30.86v35.01h-30.86zm30.86 0h30.87v35.01h-30.87zM86.62 185.72h30.87v35.02H86.62zm30.87 0h30.86v35.02H117.5zm30.86 0h30.87v35.02h-30.87z"/><path stroke="#000" d="M179.22 185.72h30.86v35.02h-30.86zm30.86 0h30.87v35.02h-30.87zM86.62 220.75h30.87v35H86.62zm30.87 0h30.86v35H117.5zm30.86 0h30.87v35h-30.87z"/><path stroke="#000" d="M179.22 220.74h30.86v35h-30.86zm30.86 0h30.87v35h-30.87zm-123.46 35h30.87v35.02H86.62zm30.87 0h30.86v35.02H117.5zm30.86 0h30.87v35.02h-30.87z"/><path stroke="#000" d="M179.22 255.75h30.86v35.01h-30.86zm30.86 0h30.87v35.01h-30.87zM86.62 115.7h30.87v35.01H86.62zm30.87 0h30.86v35.01H117.5zm30.86 0h30.87v35.01h-30.87z"/><path stroke="#000" d="M179.22 115.7h30.86v35.01h-30.86zm30.86 0h30.87v35.01h-30.87zM86.62 150.71h30.87v35.01H86.62zm30.87 0h30.86v35.01H117.5zm30.86 0h30.87v35.01h-30.87z"/><path stroke="#000" d="M179.22 150.71h30.86v35.01h-30.86zm30.86 0h30.87v35.01h-30.87zM86.62 185.72h30.87v35.02H86.62zm30.87 0h30.86v35.02H117.5zm30.86 0h30.87v35.02h-30.87z"/><path stroke="#000" d="M179.22 185.72h30.86v35.02h-30.86zm30.86 0h30.87v35.02h-30.87zM86.62 220.75h30.87v35H86.62zm30.87 0h30.86v35H117.5zm30.86 0h30.87v35h-30.87z"/><path stroke="#000" d="M179.22 220.74h30.86v35h-30.86zm30.86 0h30.87v35h-30.87zm-123.46 35h30.87v35.02H86.62zm30.87 0h30.86v35.02H117.5zm30.86 0h30.87v35.02h-30.87z"/><path stroke="#000" d="M179.22 255.75h30.86v35.01h-30.86zm30.86 0h30.87v35.01h-30.87zM86.62 115.7h30.87v35.01H86.62zm30.87 0h30.86v35.01H117.5zm30.86 0h30.87v35.01h-30.87z"/><path stroke="#000" d="M179.22 115.7h30.86v35.01h-30.86zm30.86 0h30.87v35.01h-30.87zM86.62 150.71h30.87v35.01H86.62zm30.87 0h30.86v35.01H117.5zm30.86 0h30.87v35.01h-30.87z"/><path stroke="#000" d="M179.22 150.71h30.86v35.01h-30.86zm30.86 0h30.87v35.01h-30.87zM86.62 185.72h30.87v35.02H86.62zm30.87 0h30.86v35.02H117.5zm30.86 0h30.87v35.02h-30.87z"/><path stroke="#000" d="M179.22 185.72h30.86v35.02h-30.86zm30.86 0h30.87v35.02h-30.87zM86.62 220.75h30.87v35H86.62zm30.87 0h30.86v35H117.5zm30.86 0h30.87v35h-30.87z"/><path stroke="#000" d="M179.22 220.74h30.86v35h-30.86zm30.86 0h30.87v35h-30.87zm-123.46 35h30.87v35.02H86.62zm30.87 0h30.86v35.02H117.5zm30.86 0h30.87v35.02h-30.87z"/><path stroke="#000" d="M179.22 255.75h30.86v35.01h-30.86zm30.86 0h30.87v35.01h-30.87zM86.62 115.7h30.87v35.01H86.62zm30.87 0h30.86v35.01H117.5zm30.86 0h30.87v35.01h-30.87z"/><path stroke="#000" d="M179.22 115.7h30.86v35.01h-30.86zm30.86 0h30.87v35.01h-30.87zM86.62 150.71h30.87v35.01H86.62zm30.87 0h30.86v35.01H117.5zm30.86 0h30.87v35.01h-30.87z"/><path stroke="#000" d="M179.22 150.71h30.86v35.01h-30.86zm30.86 0h30.87v35.01h-30.87zM86.62 185.72h30.87v35.02H86.62zm30.87 0h30.86v35.02H117.5zm30.86 0h30.87v35.02h-30.87z"/><path stroke="#000" d="M179.22 185.72h30.86v35.02h-30.86zm30.86 0h30.87v35.02h-30.87zM86.62 220.75h30.87v35H86.62zm30.87 0h30.86v35H117.5zm30.86 0h30.87v35h-30.87z"/><path stroke="#000" d="M179.22 220.74h30.86v35h-30.86zm30.86 0h30.87v35h-30.87zm-123.46 35h30.87v35.02H86.62zm30.87 0h30.86v35.02H117.5zm30.86 0h30.87v35.02h-30.87z"/><path stroke="#000" d="M179.22 255.75h30.86v35.01h-30.86zm30.86 0h30.87v35.01h-30.87z"/></svg>