<svg xmlns="http://www.w3.org/2000/svg" xml:space="preserve" fill="none" viewBox="0 0 512 512"><path stroke="#000" stroke-width="2" d="M17 17h478v478H17Z"/><path stroke="#000" stroke-width="2" d="M47 154h418v298H47zM192 36h128v108H192z"/><path fill="#000" d="M208.5 62.5h95v55h-95z"/><path fill="#fff" d="M242 90q0 5-1 8.6-1 3.6-3.3 5.5-2.2 1.9-5.7 1.9-5.1 0-7.6-4.2Q222 97.5 222 90q0-5 1-8.6 1-3.6 3.2-5.5T232 74q5 0 7.5 4.2T242 90zm-16.3 0q0 6.4 1.4 9.6 1.4 3.1 4.9 3.1 3.3 0 4.8-3.1 1.4-3.2 1.4-9.6 0-6.4-1.4-9.6-1.5-3.1-4.8-3.1-3.5 0-4.9 3.1-1.4 3.2-1.4 9.6zm40.3 0q0 5-1 8.6-1 3.6-3.3 5.5-2.2 1.9-5.7 1.9-5.1 0-7.6-4.2Q246 97.5 246 90q0-5 1-8.6 1-3.6 3.2-5.5T256 74q5 0 7.5 4.2T266 90zm-16.3 0q0 6.4 1.4 9.6 1.4 3.1 4.9 3.1 3.3 0 4.8-3.1 1.4-3.2 1.4-9.6 0-6.4-1.4-9.6-1.5-3.1-4.8-3.1-3.5 0-4.9 3.1-1.4 3.2-1.4 9.6zm40.3 0q0 5-1 8.6-1 3.6-3.3 5.5-2.2 1.9-5.7 1.9-5.1 0-7.6-4.2Q270 97.5 270 90q0-5 1-8.6 1-3.6 3.2-5.5T280 74q5 0 7.5 4.2T290 90zm-16.3 0q0 6.4 1.4 9.6 1.4 3.1 4.9 3.1 3.3 0 4.8-3.1 1.4-3.2 1.4-9.6 0-6.4-1.4-9.6-1.5-3.1-4.8-3.1-3.5 0-4.9 3.1-1.4 3.2-1.4 9.6z" font-family="sans-serif" font-size="64" style="-inkscape-font-specification:sans-serif;text-align:center" text-anchor="middle"/><path stroke="#000" stroke-linecap="round" stroke-miterlimit="10" stroke-width="2" d="M446 88.7 423.7 111M446 71.6 406.6 111M446 52.4 387.4 111m-18.4 0 70-70m-18.4 0-70 70m-17.6 0 70-70m-70 51.8L384.8 41M333 76l35-35m-35 15.4L348.4 41M333 41h113v70H333zM179 88.7 156.7 111M179 71.6 139.6 111M179 52.4 120.4 111m-18.4 0 70-70m-18.4 0-70 70M66 111l70-70M66 92.8 117.8 41M66 76l35-35M66 56.4 81.4 41M66 41h113v70H66Z"/><circle cx="394" cy="267" r="23" stroke="#000" stroke-linecap="round" stroke-miterlimit="10" stroke-width="2"/><circle cx="394" cy="339" r="23" stroke="#000" stroke-linecap="round" stroke-miterlimit="10" stroke-width="2"/><path fill="#000" stroke="#000" stroke-linecap="round" stroke-miterlimit="10" stroke-width="2" d="M256 284a19 19 0 0 0-19 19 19 19 0 0 0 19 19 19 19 0 0 0 19-19 19 19 0 0 0-19-19zm-6.5 12.5h13v13h-13v-13z"/><path stroke="#000" stroke-linecap="round" stroke-miterlimit="10" stroke-width="2" d="m172 368.2 18.8 18.8M172 351l36 36m-36-56.1 56.1 56.1M172 313.7l73.3 73.3M172 295.2l91.8 91.8M172 276.7 282.3 387M172 259.2 299.8 387m-47.5-65.4 65.4 65.4M172 241.3l65.4 65.4m30.3 11.2 66 65.9M175.1 225.4l65.9 65.9m33.3 16.5 65.4 65.5m-154-154.1 65.4 65.4m-49-65.6L340 357M220.6 219 340 338.4M236.9 219 340 322.1M253.5 219l86.5 86.5M269.9 219l70.1 70.1M288.7 219l51.3 51.3M305 219l35 35m-18-35 18 18m-152-18h136a16 16 0 0 1 16 16v136a16 16 0 0 1-16 16H188a16 16 0 0 1-16-16V235a16 16 0 0 1 16-16z"/></svg>