<svg xmlns="http://www.w3.org/2000/svg" xml:space="preserve" fill="none" viewBox="0 0 512 512"><path stroke="#000" stroke-width="2" d="M17 17h478v478H17Z"/><path stroke="#000" stroke-width="2" d="M47 154h418v298H47zM192 36h128v108H192z"/><path fill="#000" d="M208.5 62.5h95v55h-95z"/><path fill="#fff" d="M252.9 90q0 7.4-1.6 12.6-1.5 5.3-4.9 8.1-3.3 2.8-8.8 2.8-7.7 0-11.4-6.2-3.7-6.3-3.7-17.3 0-7.5 1.5-12.7 1.5-5.3 4.9-8 3.3-2.8 8.7-2.8 7.7 0 11.5 6.2 3.8 6.1 3.8 17.3zm-24.7 0q0 9.4 2 14 2.2 4.7 7.4 4.7t7.3-4.6q2.3-4.7 2.3-14.1 0-9.4-2.3-14-2.1-4.7-7.3-4.7-5.2 0-7.3 4.7-2.1 4.6-2.1 14zm61.3 0q0 7.4-1.6 12.6-1.5 5.3-4.9 8.1-3.3 2.8-8.8 2.8-7.7 0-11.4-6.2Q259 101 259 90q0-7.5 1.5-12.7 1.5-5.3 4.9-8 3.3-2.8 8.7-2.8 7.7 0 11.5 6.2 3.8 6.1 3.8 17.3zm-24.7 0q0 9.4 2 14 2.3 4.7 7.4 4.7 5.2 0 7.3-4.6 2.3-4.7 2.3-14.1 0-9.4-2.3-14-2.1-4.7-7.3-4.7-5.1 0-7.3 4.7-2.1 4.6-2.1 14z" font-family="sans-serif" font-size="64" style="-inkscape-font-specification:sans-serif;text-align:center" text-anchor="middle"/><path stroke="#000" stroke-linecap="round" stroke-miterlimit="10" stroke-width="2" d="M446 88.7 423.7 111M446 71.6 406.6 111M446 52.4 387.4 111m-18.4 0 70-70m-18.4 0-70 70m-17.6 0 70-70m-70 51.8L384.8 41M333 76l35-35m-35 15.4L348.4 41M333 41h113v70H333zM179 88.7 156.7 111M179 71.6 139.6 111M179 52.4 120.4 111m-18.4 0 70-70m-18.4 0-70 70M66 111l70-70M66 92.8 117.8 41M66 76l35-35M66 56.4 81.4 41M66 41h113v70H66Z"/><circle cx="256" cy="303" r="86.5" stroke="#000" stroke-linecap="round" stroke-miterlimit="10" stroke-width="2"/><path fill="#000" stroke="#000" stroke-linecap="round" stroke-miterlimit="10" stroke-width="2" d="M256 284a19 19 0 0 0-19 19 19 19 0 0 0 19 19 19 19 0 0 0 19-19 19 19 0 0 0-19-19zm-6.5 12.5h13v13h-13v-13z"/><circle cx="256" cy="303" r="77.5" stroke="#000" stroke-linecap="round" stroke-miterlimit="10" stroke-width="5"/><path stroke="#000" stroke-linecap="round" stroke-miterlimit="10" stroke-width="10" d="M256 228v5m0 140v5m75-75h-5m-140 0h-5"/><path stroke="#000" stroke-linecap="round" stroke-miterlimit="10" stroke-width="5" d="m294.8 235.9-2.6 4.3m-72.4 125.6-2.6 4.3m105.9-105.8-4.3 2.5m-125.6 72.4-4.3 2.6m0-77.5 4.3 2.5m125.6 72.4 4.3 2.6M217.3 235.9l2.5 4.3m72.4 125.6 2.6 4.3"/><path fill="#000" d="M256 233a70 70 0 0 0-49.5 20.5A70 70 0 0 0 186 303h51a19 19 0 0 1 5.6-13.4A19 19 0 0 1 256 284v-51z"/></svg>