<svg xmlns="http://www.w3.org/2000/svg" xml:space="preserve" fill="none" viewBox="0 0 512 512"><path stroke="#000" stroke-width="2" d="M18 18h478v478H18Z"/><circle cx="448" cy="64" r="23" stroke="#000" stroke-width="2"/><circle cx="123" cy="236" r="4" fill="#000001"/><circle cx="123" cy="218" r="4" fill="#000001"/><circle cx="297" cy="164.2" r="4" fill="#000001"/><path fill="#000001" d="M129 321v52.2a4.7 10.9 63.8 0 0-9.9 3 4.7 10.9 63.8 0 0-5.3 8.9 4.7 10.9 63.8 0 0 13-2.2 4.7 10.9 63.8 0 0 6.2-7V321Z"/><circle cx="384" cy="200" r="4" fill="#000001"/><path stroke="#000" stroke-miterlimit="10" stroke-width="2" d="M107 151h298v98H107zM84 290h78v127H84zm87 0h78v127h-78zm87 0h78v127h-78zm87 0h78v127h-78z"/><path fill="#000001" d="m414 321-44.2 8.3v44.5a21 21 0 0 0-9.8 3c-5 2.9-7.3 6.6-5.2 8.3 2 1.8 7.9.8 12.9-2 3.6-2.2 6-4.8 6-6.7v-23.7l36.4-6.8v19.8a21 21 0 0 0-9.8 3c-5 2.9-7.4 6.6-5.3 8.3 2.2 1.8 8 .8 13-2 3.6-2.2 6-4.8 6-6.7V331zm-4 10.9v3.8l-36.3 6.8v-3.8zM324.5 321l-35 8.8v38.7a12 10 0 0 0-8-2.5 12 10 0 0 0-12 10 12 10 0 0 0 12 10 12 10 0 0 0 12-10v-36.8l27-6.8V362a12 10 0 0 0-8-2.5 12 10 0 0 0-12 10 12 10 0 0 0 12 10 12 10 0 0 0 12-10v-38zM209 321v44.4a11.3 11.8 0 0 0-7.7-3 11.3 11.8 0 0 0-11.3 11.8 11.3 11.8 0 0 0 11.3 11.8 11.3 11.8 0 0 0 11.4-11.8v-42.5c2.7 0 6.3.3 8 1.6 3.2 2.4 5 10.6 5 10.6h4.3s-.2-14-4.3-18.3c-4.2-4.4-16.8-4.6-16.8-4.6Z"/><path fill="#000" stroke="#000" stroke-miterlimit="10" stroke-width="2" d="M90 76a19 19 0 0 0-19 19 19 19 0 0 0 19 19 19 19 0 0 0 19-19 19 19 0 0 0-19-19zm-6.5 12.5h13v13h-13v-13z"/></svg>