<svg xmlns="http://www.w3.org/2000/svg" xmlns:xlink="http://www.w3.org/1999/xlink" xml:space="preserve" fill="none" viewBox="0 0 512 512"><defs><path id="a" stroke="#000" stroke-miterlimit="10" stroke-width="2" d="m256 98.3 48.7 7.7 44 22.4 34.9 34.9 22.4 44 7.7 48.7-7.7 48.7-22.4 44-34.9 34.9-44 22.4-48.7 7.7-48.7-7.7-44-22.4-34.9-34.9-22.4-44-7.7-48.7 7.7-48.7 22.4-44 34.9-34.9 44-22.4z"/></defs><path stroke="#000" stroke-width="2" d="M18 18h478v478H18Z"/><circle cx="448" cy="64" r="23" stroke="#000" stroke-width="2"/><use xlink:href="#a" stroke-miterlimit="10" stroke-width="2" transform="rotate(45 266.5 251.7) scale(1.0239386 1.0239382)"/><use xlink:href="#a" stroke-miterlimit="10" stroke-width="2" transform="rotate(45 266.5 251.7) scale(1.0239386 1.0239382)"/><use xlink:href="#a" stroke-miterlimit="10" stroke-width="2" transform="rotate(45 256.8 255.7) scale(1.0017461 1.0017463)"/><use xlink:href="#a" stroke-miterlimit="10" stroke-width="2.2" transform="rotate(45 218 271.8) scale(.91297678 .91297783)"/><path fill="#000" stroke="#000" stroke-miterlimit="10" stroke-width="2" d="M254.6 237a19 19 0 0 0-12 5.6 19 19 0 0 0 0 26.8 19 19 0 0 0 26.8 0 19 19 0 0 0 0-26.8 19 19 0 0 0-14.8-5.6zm-5.1 12.5h13v13h-13v-13z"/><path fill="#000001" d="m347.9 162 3.5 3.5-53 53-3.5-3.5zM215 294.9l3.5 3.5-53 53-3.6-3.5zm135.7 52.3-3.5 3.5-53-53 3.5-3.5zM217.8 214.3l-3.5 3.5-53-53 3.5-3.6zm31.9-98.1a120 120 0 0 0-78.6 35l14.4 14.3A100 100 0 0 1 256 136a100 100 0 0 1 70.7 29.3L341 151a120 120 0 0 0-91.2-35zm-64.2 230.3L171 361a120 120 0 0 0 169.8 0l-14.4-14.4A100 100 0 0 1 256 376a100 100 0 0 1-70.5-29.5Zm175.4-175.4-14.2 14.2A100 100 0 0 1 376 256a100 100 0 0 1-29.5 70.5L361 341a120 120 0 0 0 0-169.8zm-209.8 0a120 120 0 0 0 0 169.8l14.4-14.4A100 100 0 0 1 136 256a100 100 0 0 1 29.5-70.5Z"/><circle cx="256" cy="256" r="131.5" stroke="#000" stroke-miterlimit="10" stroke-width="2"/></svg>