<svg xmlns="http://www.w3.org/2000/svg" xml:space="preserve" fill="none" viewBox="0 0 512 512"><path stroke="#000" stroke-width="2" d="M17 17h478v478H17Z"/><circle cx="448" cy="64" r="23" stroke="#000" stroke-width="2"/><path stroke="#000" stroke-miterlimit="10" stroke-width="2" d="m256 117.8 21-41.9-21 17.9-21-17.9Z"/><path fill="#000" stroke="#000" stroke-linecap="round" stroke-miterlimit="10" stroke-width="2" d="M256 270a17 17 0 0 0-17 17 17 17 0 0 0 17 17 17 17 0 0 0 17-17 17 17 0 0 0-17-17zm-6.5 10.5h13v13h-13v-13z"/><path stroke="#000" stroke-miterlimit="10" stroke-width=".3" d="m256 185.3 7.9 1.2 7 3.6 5.7 5.7 3.6 7 1.3 8-1.3 7.8-3.6 7-5.6 5.7-7.1 3.6-7.9 1.3-7.9-1.3-7-3.6-5.7-5.6-3.6-7.1-1.3-7.9 1.3-7.8 3.6-7.1 5.6-5.7 7.1-3.6z" transform="matrix(5.8527834 0 0 5.8527832 -1242.3 -946.3)"/><circle cx="256" cy="287" r="60" stroke="#000" stroke-miterlimit="10" stroke-width="2"/><path fill="#000" stroke="#000" stroke-linecap="round" stroke-miterlimit="10" stroke-width="2" d="M256 150v26m4-26a4 4 0 0 1-4 4 4 4 0 0 1-4-4 4 4 0 0 1 4-4 4 4 0 0 1 4 4zm-4 274v-26m4 26a4 4 0 0 0-4-4 4 4 0 0 0-4 4 4 4 0 0 0 4 4 4 4 0 0 0 4-4zm133-137h-26m26 4a4 4 0 0 1-4-4 4 4 0 0 1 4-4 4 4 0 0 1 4 4 4 4 0 0 1-4 4zm-274-4h26m-26 4a4 4 0 0 0 4-4 4 4 0 0 0-4-4 4 4 0 0 0-4 4 4 4 0 0 0 4 4zm68-119.6 13 22.5m-9.5-24.5a4 4 0 0 1-1.5 5.4 4 4 0 0 1-5.5-1.4 4 4 0 0 1 1.5-5.5 4 4 0 0 1 5.5 1.5zM324 408.6l-13-22.5m16.5 20.5a4 4 0 0 0-5.5-1.4 4 4 0 0 0-1.5 5.4 4 4 0 0 0 5.5 1.5 4 4 0 0 0 1.5-5.5zm46.6-185.1-22.5 13m24.5-9.5a4 4 0 0 1-5.4-1.5 4 4 0 0 1 1.4-5.5 4 4 0 0 1 5.5 1.5 4 4 0 0 1-1.5 5.5zM136.9 358.5l22.5-13M138.9 362a4 4 0 0 0 1.4-5.5 4 4 0 0 0-5.4-1.5 4 4 0 0 0-1.5 5.5 4 4 0 0 0 5.5 1.5zm-2-140.5 22.5 13M138.9 218a4 4 0 0 1 1.4 5.5 4 4 0 0 1-5.4 1.5 4 4 0 0 1-1.5-5.5 4 4 0 0 1 5.5-1.5zm235.2 140.5-22.5-13m24.5 9.5a4 4 0 0 0-5.4 1.5 4 4 0 0 0 1.4 5.5 4 4 0 0 0 5.5-1.5 4 4 0 0 0-1.5-5.5zM324 171.4l-13 22.5m16.5-20.5a4 4 0 0 1-5.5 1.4 4 4 0 0 1-1.5-5.4 4 4 0 0 1 5.5-1.5 4 4 0 0 1 1.5 5.5zM187 408.6l13-22.5m-9.5 24.5a4 4 0 0 0-1.5-5.4 4 4 0 0 0-5.5 1.4 4 4 0 0 0 1.5 5.5 4 4 0 0 0 5.5-1.5z"/><path stroke="#000" stroke-linecap="round" stroke-miterlimit="10" stroke-width="2" d="m-12 136.5 145.2-.8 2.6 51.1-146-1.8z" transform="matrix(.86357905 -.50421348 .46426022 .88569885 0 0)"/><circle cx="406" cy="428" r="7" stroke="#000" stroke-linecap="round" stroke-miterlimit="10" stroke-width="2"/><circle cx="426" cy="428" r="7" stroke="#000" stroke-linecap="round" stroke-miterlimit="10" stroke-width="2"/></svg>