<svg xmlns="http://www.w3.org/2000/svg" xml:space="preserve" fill="none" viewBox="0 0 512 512"><path stroke="#000" stroke-width="2" d="M18 18h478v478H18Z"/><circle cx="448" cy="64" r="23" stroke="#000" stroke-width="2"/><circle cx="256" cy="362.5" r="36.5" stroke="#000" stroke-linecap="round" stroke-miterlimit="10" stroke-width="1.9"/><path fill="#000" d="M256 346a16.5 16.5 0 0 0-16.5 16.5A16.5 16.5 0 0 0 256 379a16.5 16.5 0 0 0 16.5-16.5A16.5 16.5 0 0 0 256 346zm-6.5 10h13v13h-13v-13zm-99-140a16.5 16.5 0 0 0-16.5 16.5 16.5 16.5 0 0 0 16.5 16.5 16.5 16.5 0 0 0 16.5-16.5 16.5 16.5 0 0 0-16.5-16.5zm-6.5 10h13v13h-13v-13z"/><path stroke="#000" stroke-miterlimit="10" stroke-width="2" d="M150.5 174v10m29.3-2.2-5 8.7m26.4 12.8-8.7 5m16.5 24.2h-10"/><path fill="#000" d="M256 167a16.5 16.5 0 0 0-16.5 16.5A16.5 16.5 0 0 0 256 200a16.5 16.5 0 0 0 16.5-16.5A16.5 16.5 0 0 0 256 167zm-6.5 10h13v13h-13v-13z"/><path stroke="#000" stroke-miterlimit="10" stroke-width="2" d="M256 125v10m29.3-2.2-5 8.7m26.4 12.8-8.7 5m16.5 24.2h-10"/><path fill="#000" d="M361.5 216a16.5 16.5 0 0 0-16.5 16.5 16.5 16.5 0 0 0 16.5 16.5 16.5 16.5 0 0 0 16.5-16.5 16.5 16.5 0 0 0-16.5-16.5zm-6.5 10h13v13h-13v-13z"/><path stroke="#000" stroke-miterlimit="10" stroke-width="2" d="M361.5 174v10m29.3-2.2-5 8.7m26.4 12.8-8.7 5m16.5 24.2h-10"/></svg>