<svg xmlns="http://www.w3.org/2000/svg" xml:space="preserve" fill="none" viewBox="0 0 512 512"><path stroke="#000" stroke-width="2" d="M17 17h478v478H17Z"/><circle cx="448" cy="64" r="23" stroke="#000" stroke-width="2"/><g style="-inkscape-font-specification:Saira;text-align:center" text-anchor="middle"><path fill="#000" d="M121.3 380h-1.7v-11.7h-4.1V367h9.9v1.4h-4.1zm13.1 0-1.6-4h-5.3l-1.5 4h-1.7l5.1-13.2h1.5l5.2 13.3zm-2.1-5.5-1.5-4-.2-.5-.3-.8-.1-.7-.4 1.1-.2.9-1.5 4zm9.2-7.6q2.5 0 3.7.9 1.1 1 1.1 2.8 0 1-.3 1.8-.4.7-1 1.1-.6.4-1.3.6l3.6 6h-2l-3.1-5.5h-2.6v5.5h-1.7v-13.2zm0 1.4h-2v4.9h2q1.6 0 2.4-.6.7-.7.7-2 0-1.2-.8-1.7-.7-.6-2.4-.6zm13.6 4.7h4.6v6.6l-2.2.5q-1 .2-2.4.2-2.1 0-3.5-.9-1.4-.8-2.2-2.3-.7-1.5-.7-3.6 0-2 .8-3.6.8-1.5 2.4-2.4 1.5-.8 3.7-.8l2 .2 2 .5-.7 1.5-1.6-.5q-.9-.3-1.8-.3-2.4 0-3.7 1.5-1.3 1.4-1.3 3.9 0 1.5.5 2.8.5 1.2 1.6 1.8 1 .7 2.8.7h1.5l1.1-.3v-4h-2.9zm15.1 7H163v-13h7.3v1.4h-5.7v4.1h5.4v1.5h-5.4v4.7h5.7zm7.1 0h-1.6v-11.7h-4.2V367h10v1.4h-4.2z" aria-label="TARGET" font-family="sans-serif" font-size="18.5" style="-inkscape-font-specification:sans-serif" transform="scale(.84877336 1.1781708)"/></g><path fill="#000" d="M75.6 406.2q2 0 3.2 1.2 1.2 1.2 1.2 3.2l-.2 2-.5 1.4h-2q.4-.6.7-1.5.3-1 .3-2 0-1.3-.7-2t-1.8-.7q-.8 0-1.3.2-.5.3-1 1l-1 1.7q-.6 1.6-1.7 2.4-1 .7-2.8.7-1.3 0-2.1-.5-1-.5-1.4-1.3-.5-1-.5-2l.2-2 .7-1.5 1.7.5-.6 1.4q-.3.8-.3 1.6 0 1.1.7 1.7.6.6 1.6.6.8 0 1.3-.3.5-.2 1-.8l.8-1.6 1.1-1.8q.6-.8 1.4-1.2.8-.4 2-.4zm4.2-6.3v1.5H65.9v3.9h-1.7V396H66v3.8zm0-12.2-4.8 1.5v4.8l4.8 1.5v1.6l-15.6-4.8v-1.4l15.6-4.8zm-6.6 2-4.7 1.3-.6.2-1 .2-.7.2 1.3.3 1 .2 4.7 1.4zm-9-8.7q0-2.3 1.1-3.4 1.1-1 3.3-1 1.3 0 2.1.3.8.4 1.3 1 .5.5.8 1.1l7-3.4v1.8l-6.4 3v2.5h6.4v1.5H64.2Zm1.7.1v1.8h5.8V381q0-1.5-.7-2.2-.8-.7-2.3-.7-1.5 0-2.1.8-.7.7-.7 2.2zm13.9-11.3v1.6H65.9v3.8h-1.7V366H66v3.8z" aria-label="START" font-size="19.4" style="-inkscape-font-specification:sans-serif;text-align:center" text-anchor="middle"/><path fill="#000" d="M228 427.6h-2.6v-28.1H219V396h15.5v3.5H228zm25.3-31.6v20.4q0 3.3-1 6-.8 2.6-2.6 4.1-1.8 1.5-4.5 1.5-3.8 0-5.8-3.2t-2-8.5V396h2.6v20.5q0 3.8 1.3 6 1.4 2 4 2 2.9 0 4.1-2.2 1.3-2.3 1.3-5.9V396zm11.1 0q3.8 0 5.6 2.3 1.9 2.2 1.9 6.7 0 2.5-.6 4.2-.6 1.7-1.6 2.7-.9 1-2 1.5l5.7 14.2h-3l-5-13h-4.1v13h-2.6V396zm-.2 3.4h-3v11.8h3.2q2.5 0 3.6-1.5 1.2-1.6 1.2-4.6 0-3-1.2-4.3-1.2-1.4-3.8-1.4zm28.8 28.2h-3l-11-26.3h-.2l.2 3.9v22.4h-2.3V396h3l11 26.1V420l-.1-3v-21h2.4z" aria-label="TURN" font-size="35.7" style="-inkscape-font-specification:sans-serif;text-align:center" text-anchor="middle"/><path fill="#000" d="M120.3 288.4q4.3 0 6.4 2.3 2 2.1 2 6.6 0 2.5-.7 4.1-.6 1.7-1.7 2.7-1 1-2.2 1.5l6.3 14h-3.3l-5.6-12.9h-4.6v12.9H114v-31.2zm-.1 3.4h-3.3v11.6h3.4q2.9 0 4.1-1.5 1.3-1.5 1.3-4.4 0-3-1.3-4.4-1.4-1.3-4.2-1.3zm26.7 27.8H134v-31.2h13v3.5h-10v9.7h9.4v3.4H137v11.1h10zm18.1-8.4q0 4.2-2.2 6.5t-6 2.3q-2 0-3.6-.4t-2.7-1v-3.8q1.1.7 2.8 1.2 1.8.6 3.6.6 2.6 0 3.9-1.4 1.3-1.3 1.3-3.6 0-1.5-.5-2.6-.5-1-1.7-1.9-1.1-.9-3.2-2-3-1.4-4.5-3.5-1.4-2-1.4-5.7 0-2.4.9-4.2 1-1.8 2.6-2.7 1.6-1 3.8-1 1.9 0 3.5.5 1.5.5 2.9 1.2l-1 3.4q-1.1-.7-2.6-1.2-1.4-.5-2.9-.5-2.1 0-3.2 1.3-1.1 1.2-1.1 3.3 0 1.5.5 2.6.5 1 1.6 2 1 .7 3 1.7t3.3 2.1q1.5 1.2 2.2 2.8.7 1.6.7 4zm17.5 8.4h-12.9v-31.2h13v3.5h-10v9.7h9.3v3.4h-9.4v11.1h10zm12.3 0H192v-27.7h-7.1v-3.5H202v3.5h-7.2z" aria-label="RESET" font-size="37.5" style="-inkscape-font-specification:sans-serif;text-align:center" text-anchor="middle"/><path fill="#000" d="M319.6 291.4q-3.2 0-5 3.4-2 3.4-2 9.2 0 5.8 1.8 9.2 1.8 3.4 5.2 3.4 1.3 0 2.5-.4 1.2-.3 2.3-.9v3.4q-1 .7-2.3 1-1.2.3-2.8.3-3.1 0-5.2-2-2-2-3-5.5-1.1-3.7-1.1-8.5t1.1-8.3q1.1-3.6 3.3-5.7 2.2-2 5.3-2 3.2 0 5.5 1.8l-1 3.3-2-1.1q-1.2-.6-2.6-.6zm24.7 28.2h-2.6V305h-10.3v14.6h-2.6v-31.2h2.6v13.2h10.3v-13.2h2.6zm16.7 0h-11.2v-31.2H361v3.5h-8.7v9.7h8.2v3.4h-8.2v11.1h8.7zm13-28.2q-3.2 0-5 3.4-1.9 3.4-1.9 9.2 0 5.8 1.7 9.2 1.8 3.4 5.2 3.4 1.3 0 2.5-.4 1.2-.3 2.4-.9v3.4q-1.2.7-2.4 1-1.2.3-2.8.3-3.1 0-5.2-2-2-2-3-5.5-1-3.7-1-8.5t1-8.3q1.2-3.6 3.3-5.7 2.2-2 5.3-2 3.2 0 5.6 1.8l-1 3.3-2.1-1.1q-1.2-.6-2.5-.6zm24 28.2h-3l-7.1-14.9-2 2.8v12h-2.6v-31h2.5v15.3l1.7-3 1.8-3 5.4-9.4h3l-8 13.6z" aria-label="CHECK" font-size="35.1" style="-inkscape-font-specification:sans-serif;text-align:center" text-anchor="middle"/><circle cx="238" cy="116" r="9.5" fill="#000"/><circle cx="272" cy="116" r="9.5" fill="#000"/><circle cx="238" cy="150" r="9.5" fill="#000"/><path fill="#000" stroke="#000" stroke-linecap="round" stroke-miterlimit="10" stroke-width="2" d="M158 239a17 17 0 0 0-17 17 17 17 0 0 0 17 17 17 17 0 0 0 17-17 17 17 0 0 0-17-17zm-8 9h16v16h-16v-16zM72 423a17 17 0 0 0-17 17 17 17 0 0 0 17 17 17 17 0 0 0 17-17 17 17 0 0 0-17-17zm-8 9h16v16H64v-16zm192-85a17 17 0 0 0-17 17 17 17 0 0 0 17 17 17 17 0 0 0 17-17 17 17 0 0 0-17-17zm-8 9h16v16h-16v-16zm106-117a17 17 0 0 0-17 17 17 17 0 0 0 17 17 17 17 0 0 0 17-17 17 17 0 0 0-17-17zm-8 9h16v16h-16v-16z"/><circle cx="213" cy="175" r="9.5" fill="#000"/><circle cx="213" cy="91" r="9.5" fill="#000"/><circle cx="297" cy="91" r="9.5" fill="#000"/><circle cx="297" cy="175" r="9.5" fill="#000"/><circle cx="272" cy="150" r="9.5" fill="#000"/><path stroke="#000" stroke-miterlimit="10" stroke-width="2" d="M197 75h116v116H197zm22 144h74v74h-74z"/><path stroke="#000" stroke-miterlimit="10" stroke-width="2" d="M260 179h-10m5-5v10m8-5a8 8 0 1 1-16 0 8 8 0 0 1 16 0zm-49-46h-10m5-5v10m8-5a8 8 0 1 1-16 0 8 8 0 0 1 16 0zm39 90.2 32 63.9-32-27.2-32 27.2zM260 87h-10m5-5v10m8-5a8 8 0 1 1-16 0 8 8 0 0 1 16 0zm43 46h-10m5-5v10m8-5a8 8 0 1 1-16 0 8 8 0 0 1 16 0z"/></svg>